<?xml version="1.0" standalone="no"?>
<!DOCTYPE svg PUBLIC "-//W3C//DTD SVG 20010904//EN"
 "http://www.w3.org/TR/2001/REC-SVG-20010904/DTD/svg10.dtd">
<svg version="1.0" xmlns="http://www.w3.org/2000/svg"
 width="480.000000pt" height="480.000000pt" viewBox="0 0 480.000000 480.000000"
 preserveAspectRatio="xMidYMid meet">
<metadata>
Created by potrace 1.14, written by Peter Selinger 2001-2017
</metadata>
<g transform="translate(0.000000,480.000000) scale(0.100000,-0.100000)"
fill="#000000" stroke="none">
<path d="M2210 4793 c-243 -20 -541 -94 -750 -185 -77 -34 -262 -128 -291
-149 -15 -10 -30 -19 -33 -19 -7 0 -167 -113 -226 -159 -268 -213 -508 -509
-653 -804 -119 -240 -205 -514 -232 -736 -4 -30 -9 -63 -12 -75 -9 -38 -11
-410 -2 -486 16 -148 21 -177 44 -285 110 -507 373 -953 775 -1310 288 -257
719 -466 1106 -540 169 -31 253 -39 454 -39 202 -1 279 5 420 30 19 4 44 8 55
10 146 21 408 110 600 205 616 303 1087 881 1255 1539 16 63 32 129 35 145 3
17 7 44 11 60 21 114 31 263 29 446 -1 114 -5 210 -7 215 -3 5 -8 37 -12 70
-3 34 -17 113 -31 175 -96 452 -314 856 -638 1182 -110 111 -145 142 -257 228
-222 169 -472 298 -740 380 -150 47 -214 60 -440 95 -40 6 -407 12 -460 7z"/>
</g>
</svg>
