<?xml version="1.0" encoding="UTF-8"?>
<svg xmlns="http://www.w3.org/2000/svg" width="250" height="170" viewBox="0 0 250 170">
  <rect width="250" height="170" fill="#f4f1ea"/>

  <!-- three clients -->
  <rect x="20" y="20" width="40" height="70" rx="6" fill="#1f1a14"/>
  <rect x="75" y="20" width="50" height="40" rx="4" fill="#2f6fed"/>
  <rect x="140" y="20" width="90" height="28" rx="4" fill="#7950f2"/>
  <!-- arrows to BFF -->
  <path d="M40 95 L125 115" stroke="#6b6458" stroke-width="2"/>
  <path d="M100 65 L125 115" stroke="#6b6458" stroke-width="2"/>
  <path d="M185 55 L125 115" stroke="#6b6458" stroke-width="2"/>
  <!-- BFF -->
  <rect x="85" y="115" width="80" height="28" rx="6" fill="#2f9e44"/>
  <!-- backends -->
  <rect x="30" y="150" width="50" height="12" rx="2" fill="#e9e4db" stroke="#6b6458"/>
  <rect x="100" y="150" width="50" height="12" rx="2" fill="#e9e4db" stroke="#6b6458"/>
  <rect x="170" y="150" width="50" height="12" rx="2" fill="#e9e4db" stroke="#6b6458"/>
  <path d="M125 143 L55 150 M125 143 L125 150 M125 143 L195 150" stroke="#6b6458" stroke-width="1.5"/>

</svg>
