<?xml version="1.0" encoding="UTF-8"?>
<svg xmlns="http://www.w3.org/2000/svg" width="250" height="170" viewBox="0 0 250 170">
  <rect width="250" height="170" fill="#f4f1ea"/>

  <rect x="30" y="24" width="190" height="122" rx="8" fill="#ffffff" stroke="#c9c2b6" stroke-width="1.5"/>
  <rect x="30" y="24" width="190" height="28" rx="8" fill="#1f1a14"/>
  <rect x="30" y="40" width="190" height="12" fill="#1f1a14"/>
  <circle cx="48" cy="38" r="6" fill="#c92a2a"/>
  <circle cx="66" cy="38" r="6" fill="#e8590c"/>
  <circle cx="84" cy="38" r="6" fill="#2f9e44"/>
  <!-- PR diff lines -->
  <rect x="44" y="64" width="120" height="8" rx="2" fill="#d3f9d8"/>
  <rect x="44" y="78" width="100" height="8" rx="2" fill="#ffe3e3"/>
  <rect x="44" y="92" width="130" height="8" rx="2" fill="#d3f9d8"/>
  <!-- bot spam comments -->
  <g>
    <circle cx="200" cy="70" r="12" fill="#7950f2"/>
    <rect x="170" y="86" width="56" height="14" rx="4" fill="#7950f2" opacity="0.85"/>
    <rect x="160" y="104" width="66" height="14" rx="4" fill="#7950f2" opacity="0.55"/>
    <rect x="150" y="122" width="70" height="12" rx="4" fill="#7950f2" opacity="0.35"/>
  </g>
  <!-- nobody owns: empty person silhouette crossed -->
  <circle cx="60" cy="128" r="10" fill="none" stroke="#6b6458" stroke-width="2"/>
  <path d="M48 148 Q60 138 72 148" fill="none" stroke="#6b6458" stroke-width="2"/>
  <line x1="48" y1="120" x2="72" y2="148" stroke="#c92a2a" stroke-width="2.5"/>

</svg>
