<?xml version="1.0" encoding="UTF-8"?>
<svg xmlns="http://www.w3.org/2000/svg" width="250" height="170" viewBox="0 0 250 170">
  <rect width="250" height="170" fill="#f4f1ea"/>

  <g font-family="DejaVu Sans, Helvetica, Arial, sans-serif" font-size="9" fill="#6b6458">
  </g>
  <!-- timeline boxes -->
  <rect x="14" y="60" width="48" height="50" rx="6" fill="#ffffff" stroke="#6b6458" stroke-width="1.5"/>
  <rect x="18" y="68" width="40" height="10" rx="2" fill="#e9e4db"/>
  <rect x="18" y="82" width="40" height="10" rx="2" fill="#e9e4db"/>
  <rect x="18" y="96" width="40" height="8" rx="2" fill="#2f6fed"/>
  <path d="M66 85 L78 85" stroke="#1f1a14" stroke-width="2" marker-end="url(#a)"/>
  <rect x="80" y="60" width="48" height="50" rx="6" fill="#ffffff" stroke="#6b6458" stroke-width="1.5"/>
  <rect x="84" y="68" width="40" height="14" rx="2" fill="#e9e4db"/>
  <rect x="84" y="88" width="40" height="14" rx="2" fill="#e8590c"/>
  <path d="M132 85 L144 85" stroke="#1f1a14" stroke-width="2"/>
  <rect x="146" y="60" width="48" height="50" rx="6" fill="#ffffff" stroke="#6b6458" stroke-width="1.5"/>
  <circle cx="170" cy="78" r="10" fill="#2f6fed"/>
  <rect x="152" y="94" width="36" height="10" rx="2" fill="#e9e4db"/>
  <path d="M198 85 L210 85" stroke="#1f1a14" stroke-width="2"/>
  <rect x="212" y="50" width="28" height="70" rx="6" fill="#1f1a14"/>
  <rect x="216" y="58" width="20" height="8" rx="2" fill="#7dd3a0"/>
  <rect x="216" y="72" width="20" height="20" rx="3" fill="#2f6fed"/>
  <rect x="216" y="98" width="20" height="12" rx="2" fill="#e9e4db"/>
  <!-- arrow heads -->
  <polygon points="78,85 72,81 72,89" fill="#1f1a14"/>
  <polygon points="144,85 138,81 138,89" fill="#1f1a14"/>
  <polygon points="210,85 204,81 204,89" fill="#1f1a14"/>

</svg>
