<svg xmlns="http://www.w3.org/2000/svg" width="500" height="340" viewBox="0 0 500 340">
  <rect width="500" height="340" fill="#1a2332"/>
  <rect x="40" y="40" width="120" height="50" rx="6" fill="#2d4a6f" stroke="#7eb8e8" stroke-width="2"/>
  <text x="100" y="70" text-anchor="middle" fill="#dce8f5" font-family="system-ui,sans-serif" font-size="14" font-weight="600">:app</text>
  <rect x="190" y="40" width="120" height="50" rx="6" fill="#2a5a4a" stroke="#6bc4a0" stroke-width="2"/>
  <text x="250" y="70" text-anchor="middle" fill="#dce8f5" font-family="system-ui,sans-serif" font-size="13" font-weight="600">:feature:*</text>
  <rect x="340" y="40" width="120" height="50" rx="6" fill="#5a4a2a" stroke="#e8c46b" stroke-width="2"/>
  <text x="400" y="70" text-anchor="middle" fill="#dce8f5" font-family="system-ui,sans-serif" font-size="13" font-weight="600">:core:*</text>
  <line x1="100" y1="90" x2="100" y2="140" stroke="#7eb8e8" stroke-width="2"/>
  <line x1="100" y1="140" x2="250" y2="140" stroke="#7eb8e8" stroke-width="2"/>
  <line x1="250" y1="90" x2="250" y2="140" stroke="#6bc4a0" stroke-width="2"/>
  <line x1="250" y1="140" x2="400" y2="140" stroke="#e8c46b" stroke-width="2"/>
  <line x1="400" y1="90" x2="400" y2="140" stroke="#e8c46b" stroke-width="2"/>
  <polygon points="245,155 255,155 250,165" fill="#6bc4a0"/>
  <rect x="160" y="170" width="180" height="44" rx="6" fill="#243044" stroke="#8aa4c0" stroke-width="1.5"/>
  <text x="250" y="197" text-anchor="middle" fill="#b8c8d8" font-family="system-ui,sans-serif" font-size="13">api · impl · ownership</text>
  <rect x="80" y="250" width="100" height="36" rx="4" fill="#2d3a4a"/>
  <text x="130" y="273" text-anchor="middle" fill="#9ab0c4" font-family="system-ui,sans-serif" font-size="11">feature</text>
  <rect x="200" y="250" width="100" height="36" rx="4" fill="#2d3a4a"/>
  <text x="250" y="273" text-anchor="middle" fill="#9ab0c4" font-family="system-ui,sans-serif" font-size="11">layer</text>
  <rect x="320" y="250" width="100" height="36" rx="4" fill="#2d3a4a"/>
  <text x="370" y="273" text-anchor="middle" fill="#9ab0c4" font-family="system-ui,sans-serif" font-size="11">hybrid</text>
</svg>
